<svg height="29" width="118" xmlns="http://www.w3.org/2000/svg">
  <g fill="#fff" fill-rule="evenodd">
    <g transform="translate(0 3)">
      <path d="M14.8 24v-2.8l-2.8-.7 2.8-.7V17l1.4 2.1 2.8-.7-1.4 2.1 1.4 2.8-2.8-1.4z"/>
      <path d="M10.8 10.935C8.997 9.375 8.987 0 8.987 0s.01 9.375-1.788 10.939C5.4 12.503 0 12.507 0 12.507s5.4-.004 7.202 1.557C9.003 15.625 9.014 25 9.014 25s-.011-9.375 1.788-10.94C12.6 12.497 18 12.492 18 12.492s-5.4.005-7.2-1.557z" fill-rule="nonzero"/>
      <circle cx="2" cy="5" r="2"/>
    </g>
    <text font-family="PlayfairDisplay-Bold, Playfair Display" font-size="35" font-weight="bold" letter-spacing="1.219" transform="translate(0 -10)">
      <tspan x="26" y="38">Revel</tspan>
    </text>
  </g>
</svg>